<svg xmlns="http://www.w3.org/2000/svg" width="499" height="499" viewBox="0 0 499 499" version="1.1"><path d="M 396.729 88.132 C 394.172 89.563, 394.521 91.078, 399.867 101.768 C 409.845 121.719, 416.967 143.768, 420.617 166 C 422.955 180.240, 422.944 212.473, 420.597 226.500 C 412.999 271.918, 394.596 310.191, 363.376 345.500 C 338.785 373.313, 297.635 398.505, 269.437 403.010 C 260.777 404.394, 246.407 402.857, 236.313 399.469 C 205.222 389.032, 185.809 366.131, 179.435 332.372 C 175.594 312.028, 181.031 287.921, 193.356 270.649 C 198.697 263.165, 210.449 251.859, 218.261 246.691 C 241.604 231.245, 272.870 229.117, 299.201 241.181 C 306.252 244.411, 309.861 244.445, 308.120 241.265 C 307.589 240.294, 295.757 228.190, 281.827 214.367 C 254.683 187.432, 247.208 181.533, 234.032 176.649 C 210.438 167.904, 185.002 169.522, 163.076 181.163 C 135.969 195.555, 119.202 220.912, 116.529 251.555 C 115.743 260.560, 117.573 273.753, 121.071 284.314 C 126.640 301.126, 143.613 330.281, 157.228 346.423 C 165.212 355.889, 179.793 370.588, 187.529 376.969 C 218.921 402.864, 265.047 422.754, 306 428.054 C 317.755 429.575, 339.709 429.558, 350.906 428.018 C 377.634 424.342, 404.297 413.058, 428.267 395.278 C 474.364 361.084, 497.313 314.577, 497.109 255.768 C 497.037 234.992, 495.262 222, 490.517 207.494 C 482.482 182.935, 469.243 160.973, 448.904 138.465 C 441.505 130.277, 400.815 88.622, 399.302 87.687 C 398.838 87.400, 397.679 87.600, 396.729 88.132 M 333 151.313 C 333 151.485, 334.462 152.948, 336.250 154.563 L 339.500 157.500 336.563 154.250 C 333.825 151.221, 333 150.540, 333 151.313 M 330.320 199 C 330.320 202.575, 330.502 204.037, 330.723 202.250 C 330.945 200.463, 330.945 197.537, 330.723 195.750 C 330.502 193.963, 330.320 195.425, 330.320 199 M 89.500 410 C 96.634 417.150, 102.696 423, 102.971 423 C 103.246 423, 97.634 417.150, 90.500 410 C 83.366 402.850, 77.304 397, 77.029 397 C 76.754 397, 82.366 402.850, 89.500 410" stroke="none" fill="#fbb415" fill-rule="evenodd"/><path d="M 153 90.026 C 132.626 93.645, 114.102 100.451, 97.089 110.569 C 76.221 122.980, 54.067 142.698, 42.322 159.314 C 21.273 189.092, 9.565 230.423, 11.357 268.630 C 12.482 292.599, 17.091 310.179, 28.026 332.198 C 35.128 346.498, 40.907 355.578, 50.813 368 C 59.559 378.967, 108.685 429, 110.708 429 C 113.759 429, 113.011 425.348, 107.675 414.187 C 85.529 367.866, 79.763 318.520, 91.119 272.500 C 109.050 199.829, 161.992 138.291, 225 116.880 C 252.549 107.518, 283.885 115.694, 306 138.014 C 319.413 151.552, 327.520 168.589, 330.022 188.500 C 336.335 238.722, 295.776 284, 244.477 284 C 232.301 284, 217.923 280.572, 207.242 275.123 C 202.498 272.703, 200 272.416, 200 274.291 C 200 275.002, 212.037 287.536, 226.750 302.145 C 254.612 329.811, 259.456 333.668, 273.523 339.384 C 298.742 349.632, 330.831 345.979, 354.193 330.203 C 369.106 320.133, 381.176 304.553, 386.957 287.913 C 394.385 266.532, 393.113 246.231, 382.829 222 C 361.652 172.101, 314.714 126.513, 263.271 105.879 C 223.780 90.039, 184.625 84.410, 153 90.026" stroke="none" fill="#1c3c93" fill-rule="evenodd"/></svg>